HIERARCHY
ROOT Hips
{
    OFFSET 0.000000 0.000000 0.000000
    CHANNELS 6 Xposition Yposition Zposition Zrotation Xrotation Yrotation
    JOINT Spine
    {
        OFFSET -0.000000 0.083210 0.000000
        CHANNELS 3 Zrotation Xrotation Yrotation
        JOINT Spine1
        {
            OFFSET -0.000000 0.256334 0.000000
            CHANNELS 3 Zrotation Xrotation Yrotation
            JOINT Neck
            {
                OFFSET -0.000000 0.275576 0.002912
                CHANNELS 3 Zrotation Xrotation Yrotation
                JOINT Head
                {
                    OFFSET -0.000000 0.157287 0.020295
                    CHANNELS 3 Zrotation Xrotation Yrotation
                    End Site
                    {
                        OFFSET -0.000000 0.202951 0.000000
                    }
                }
            }
            JOINT LeftShoulder
            {
                OFFSET 0.041044 0.235234 -0.000041
                CHANNELS 3 Zrotation Xrotation Yrotation
                JOINT LeftArm
                {
                    OFFSET 0.117964 0.000000 0.000000
                    CHANNELS 3 Zrotation Xrotation Yrotation
                    JOINT LeftForeArm
                    {
                        OFFSET 0.291248 0.000000 0.000000
                        CHANNELS 3 Zrotation Xrotation Yrotation
                        JOINT LeftHand
                        {
                            OFFSET 0.245673 0.000000 0.000000
                            CHANNELS 3 Zrotation Xrotation Yrotation
                            End Site
                            {
                                OFFSET 0.152213 0.000000 0.000000
                            }
                        }
                    }
                }
            }
            JOINT RightShoulder
            {
                OFFSET -0.040052 0.235234 -0.000041
                CHANNELS 3 Zrotation Xrotation Yrotation
                JOINT RightArm
                {
                    OFFSET -0.117964 0.000000 0.000000
                    CHANNELS 3 Zrotation Xrotation Yrotation
                    JOINT RightForeArm
                    {
                        OFFSET -0.291248 0.000000 0.000000
                        CHANNELS 3 Zrotation Xrotation Yrotation
                        JOINT RightHand
                        {
                            OFFSET -0.245673 0.000000 0.000000
                            CHANNELS 3 Zrotation Xrotation Yrotation
                            End Site
                            {
                                OFFSET -0.152213 0.000000 0.000000
                            }
                        }
                    }
                }
            }
        }
    }
    JOINT LeftUpLeg
    {
        OFFSET 0.101475 0.000000 0.000000
        CHANNELS 3 Zrotation Xrotation Yrotation
        JOINT LeftLeg
        {
            OFFSET -0.000000 -0.446535 0.000000
            CHANNELS 3 Zrotation Xrotation Yrotation
            JOINT LeftFoot
            {
                OFFSET -0.000000 -0.400037 0.000000
                CHANNELS 3 Zrotation Xrotation Yrotation
                JOINT LeftToeBase
                {
                    OFFSET -0.000000 -0.065959 0.152213
                    CHANNELS 3 Zrotation Xrotation Yrotation
                    End Site
                    {
                        OFFSET -0.000000 0.000000 0.040590
                    }
                }
            }
        }
    }
    JOINT RightUpLeg
    {
        OFFSET -0.101475 0.000000 0.000000
        CHANNELS 3 Zrotation Xrotation Yrotation
        JOINT RightLeg
        {
            OFFSET -0.000000 -0.446535 0.000000
            CHANNELS 3 Zrotation Xrotation Yrotation
            JOINT RightFoot
            {
                OFFSET -0.000000 -0.400037 0.000000
                CHANNELS 3 Zrotation Xrotation Yrotation
                JOINT RightToeBase
                {
                    OFFSET -0.000000 -0.065959 0.152213
                    CHANNELS 3 Zrotation Xrotation Yrotation
                    End Site
                    {
                        OFFSET -0.000000 0.000000 0.040590
                    }
                }
            }
        }
    }
}
MOTION
Frames:    10
Frame Time:    0.008333
0.526998    0.953141    0.449547    -1.046805    -0.647433    -91.082779    -1.092439    -0.876560    -0.410420    -1.601676    1.146574    -0.117966    1.088949    2.010605    -1.426208    4.534087    1.585162    -1.955882    15.461998    -3.443187    0.630068    -23.351154    -0.953571    7.644293    0.958040    2.144395    -0.016935    9.788111    2.639037    5.775218    -13.809959    -3.023010    2.699875    25.653685    -0.163284    -6.292158    -3.439770    -0.092584    0.824959    -1.779034    0.057462    -8.103758    1.869156    4.809506    3.050198    -0.908311    3.341331    3.114225    -1.956822    -7.001371    2.987407    0.092581    1.336609    -0.950251    -4.445596    1.361220    4.687466    2.529991    9.790458    2.825239    1.581523    -10.919086    -6.967198    0.005784    -0.750279    0.179857    
0.526914    0.953143    0.449565    -1.045676    -0.650476    -91.078133    -1.083447    -0.878863    -0.407436    -1.621152    1.144607    -0.117054    1.091291    1.989309    -1.431401    4.532017    1.603083    -1.961497    15.477864    -3.446424    0.649424    -23.338541    -0.923570    7.634844    1.068849    2.239367    0.002595    9.034349    2.698767    5.815562    -13.809296    -3.007742    2.698353    25.633400    -0.178712    -6.287472    -3.440977    -0.087578    0.832918    -1.825711    0.066518    -8.100941    1.865826    4.810501    3.044033    -0.909157    3.346192    3.119283    -1.952357    -7.003881    2.983711    0.093261    1.335326    -0.957333    -4.450379    1.368755    4.697968    2.532756    9.782888    2.808497    1.584740    -10.914618    -6.965850    0.005837    -0.756141    0.181241    
0.526829    0.953136    0.449578    -1.044845    -0.653743    -91.072090    -1.075990    -0.882811    -0.404645    -1.636993    1.144791    -0.115789    1.092918    1.968060    -1.436164    4.522811    1.618713    -1.965636    15.485129    -3.447360    0.659943    -23.313557    -0.908770    7.630630    1.074198    2.239746    0.010523    8.915104    2.686629    5.734504    -13.809011    -2.980768    2.691788    25.606251    -0.209426    -6.270247    -3.436945    -0.075607    0.838943    -1.835552    0.079699    -8.124718    1.863539    4.810239    3.045511    -0.911349    3.353575    3.114400    -1.951888    -7.008939    2.979843    0.092817    1.338308    -0.952528    -4.455212    1.375212    4.707184    2.536386    9.780694    2.789022    1.586902    -10.915886    -6.961059    0.005910    -0.753324    0.183639    
0.526735    0.953133    0.449596    -1.046082    -0.655107    -91.064690    -1.065839    -0.887053    -0.401621    -1.652324    1.147882    -0.114511    1.093535    1.949216    -1.442614    4.513365    1.624335    -1.971296    15.490287    -3.451116    0.667921    -23.289001    -0.896540    7.627727    1.074126    2.254641    0.018619    8.909315    2.700830    5.729905    -13.811399    -2.957202    2.686743    25.584980    -0.228149    -6.252386    -3.447201    -0.056629    0.842400    -1.767469    0.094766    -8.152632    1.862619    4.812200    3.046338    -0.912444    3.362316    3.106309    -1.954193    -7.018042    2.979885    0.092901    1.337828    -0.953426    -4.459853    1.386682    4.722767    2.543467    9.772873    2.774852    1.584689    -10.912595    -6.967828    0.005794    -0.752610    0.180059    
0.526644    0.953131    0.449608    -1.047324    -0.655600    -91.056618    -1.055071    -0.892974    -0.399152    -1.668877    1.156174    -0.113576    1.095389    1.922772    -1.447281    4.505686    1.630702    -1.975186    15.500996    -3.469608    0.655408    -23.273350    -0.872421    7.659965    1.063885    2.265616    0.010815    9.125091    2.727812    5.793524    -13.817518    -2.932383    2.681132    25.568224    -0.260315    -6.231569    -3.443494    -0.044916    0.836031    -1.765912    0.106443    -8.142076    1.863337    4.812223    3.050367    -0.913833    3.374804    3.088915    -1.953018    -7.024744    2.984051    0.092820    1.335645    -0.952785    -4.461076    1.395857    4.731245    2.546069    9.770467    2.757116    1.587940    -10.912933    -6.965225    0.005709    -0.753922    0.177366    
0.526549    0.953128    0.449626    -1.048895    -0.656223    -91.047585    -1.045967    -0.897891    -0.395719    -1.680219    1.162473    -0.112035    1.091458    1.898924    -1.453119    4.503718    1.632571    -1.981887    15.498650    -3.470591    0.665891    -23.246399    -0.856522    7.649748    1.043328    2.235461    0.009094    9.198455    2.693870    5.699901    -13.820122    -2.904775    2.675675    25.540855    -0.298406    -6.214863    -3.431894    -0.035372    0.850497    -1.802256    0.112913    -8.159781    1.863683    4.812850    3.050695    -0.915636    3.386169    3.087080    -1.951795    -7.033478    2.975800    0.093235    1.343433    -0.956387    -4.463894    1.405676    4.740496    2.550439    9.768113    2.747263    1.586694    -10.912390    -6.972631    0.005768    -0.746208    0.179573    
0.526462    0.953129    0.449641    -1.050580    -0.657705    -91.035088    -1.039440    -0.902119    -0.394372    -1.688311    1.167442    -0.111522    1.089947    1.876565    -1.457860    4.495897    1.636078    -1.986182    15.493881    -3.471500    0.673326    -23.216639    -0.856600    7.639918    1.035369    2.247921    0.009933    9.258593    2.707679    5.679605    -13.828259    -2.881685    2.677076    25.528465    -0.323196    -6.205213    -3.433890    -0.025500    0.850675    -1.816660    0.128523    -8.168304    1.863197    4.809417    3.054094    -0.915894    3.404117    3.069435    -1.953590    -7.040196    2.978044    0.093281    1.336276    -0.957462    -4.464442    1.412761    4.729498    2.548136    9.770761    2.719386    1.598730    -10.913167    -6.942830    0.005572    -0.748475    0.173344    
0.526368    0.953133    0.449658    -1.053879    -0.659863    -91.023842    -1.031763    -0.904823    -0.390703    -1.700486    1.172117    -0.109908    1.085065    1.857829    -1.461375    4.504886    1.631234    -1.991833    15.497204    -3.476924    0.682013    -23.208960    -0.809503    7.631273    1.045607    2.228346    0.003588    9.284214    2.690612    5.693685    -13.833385    -2.862471    2.680549    25.515806    -0.343926    -6.202543    -3.429249    -0.015649    0.853227    -1.853976    0.142627    -8.168073    1.861841    4.809169    3.057142    -0.916741    3.420476    3.052100    -1.952785    -7.051149    2.981147    0.093069    1.340193    -0.954950    -4.467592    1.423591    4.737713    2.551243    9.770007    2.705783    1.595337    -10.912312    -6.948369    0.005534    -0.751199    0.172053    
0.526276    0.953138    0.449671    -1.056460    -0.662886    -91.007492    -1.028302    -0.907747    -0.387994    -1.704975    1.175989    -0.109187    1.073824    1.837962    -1.465142    4.515399    1.630209    -1.999075    15.491608    -3.481115    0.683380    -23.187523    -0.805283    7.620718    1.029572    2.208903    0.006358    9.359473    2.676265    5.710085    -13.842780    -2.843929    2.678124    25.498425    -0.377770    -6.198130    -3.412699    0.002288    0.862297    -1.887720    0.165331    -8.188273    1.859666    4.806719    3.059069    -0.916872    3.436442    3.041277    -1.953089    -7.058411    2.976775    0.093161    1.345428    -0.955457    -4.470666    1.432762    4.736375    2.552583    9.774435    2.702306    1.598888    -10.919344    -6.958487    0.005463    -0.750651    0.169876    
0.526189    0.953144    0.449686    -1.061427    -0.666835    -90.989899    -1.025764    -0.907696    -0.387387    -1.711447    1.178807    -0.108674    1.066290    1.824335    -1.467510    4.525757    1.623130    -2.003946    15.495573    -3.482949    0.689894    -23.176403    -0.808538    7.604661    1.028142    2.216187    0.006771    9.376584    2.685249    5.720880    -13.844954    -2.829517    2.682713    25.485210    -0.382128    -6.197286    -3.408580    0.004165    0.857323    -1.911536    0.167410    -8.179669    1.856084    4.804869    3.061150    -0.915600    3.456034    3.022014    -1.950179    -7.065680    2.974749    0.092456    1.346174    -0.948160    -4.473152    1.443338    4.734515    2.550797    9.777398    2.689613    1.602283    -10.921852    -6.961293    0.005465    -0.747195    0.170097    
